<mxfile host="www.draw.io" modified="2020-01-06T14:31:30.662Z" agent="Mozilla/5.0 (Macintosh; Intel Mac OS X 10_14_5) AppleWebKit/537.36 (KHTML, like Gecko) Chrome/79.0.3945.88 Safari/537.36" etag="lkczQ4kFOMwAOsW43ja7" version="12.4.8" type="github" pages="2">
  <diagram id="7FySgdGSZC3azZEk2Vnn" name="Page-1">
    <mxGraphModel dx="4200" dy="2353" grid="1" gridSize="10" guides="1" tooltips="1" connect="1" arrows="1" fold="1" page="1" pageScale="1" pageWidth="1654" pageHeight="1169" math="0" shadow="0">
      <root>
        <mxCell id="0"/>
        <mxCell id="1" parent="0"/>
        <mxCell id="LqdO3uqNpmK8e5yR4SRH-5" value="&lt;div style=&quot;box-sizing: border-box ; width: 100% ; background: #e4e4e4 ; padding: 2px&quot;&gt;agreement(协议表)&lt;/div&gt;&lt;table style=&quot;width: 100% ; font-size: 1em&quot; cellpadding=&quot;2&quot; cellspacing=&quot;0&quot;&gt;&lt;tbody&gt;&lt;tr&gt;&lt;td&gt;int&lt;/td&gt;&lt;td&gt;ID&lt;/td&gt;&lt;/tr&gt;&lt;tr&gt;&lt;td&gt;&lt;br&gt;&lt;/td&gt;&lt;td&gt;&lt;br&gt;&lt;/td&gt;&lt;/tr&gt;&lt;tr&gt;&lt;td&gt;&lt;/td&gt;&lt;td&gt;agreement_type_id（协议类型ID）&lt;br&gt;&lt;br&gt;&lt;/td&gt;&lt;/tr&gt;&lt;/tbody&gt;&lt;/table&gt;" style="verticalAlign=top;align=left;overflow=fill;html=1;" parent="1" vertex="1">
          <mxGeometry x="-1030" y="-460" width="230" height="100" as="geometry"/>
        </mxCell>
        <mxCell id="6H1ZUyYsbKM88KtSM8RW-1" value="&lt;div style=&quot;box-sizing: border-box ; width: 100% ; background: #e4e4e4 ; padding: 2px&quot;&gt;brokerage_fee_log(经纪费结算日志)&lt;/div&gt;&lt;table style=&quot;width: 100% ; font-size: 1em&quot; cellpadding=&quot;2&quot; cellspacing=&quot;0&quot;&gt;&lt;tbody&gt;&lt;tr&gt;&lt;td&gt;PK&lt;/td&gt;&lt;td&gt;id&lt;/td&gt;&lt;/tr&gt;&lt;tr&gt;&lt;td&gt;FK1&lt;/td&gt;&lt;td&gt;foreignKey&lt;/td&gt;&lt;/tr&gt;&lt;tr&gt;&lt;td&gt;&lt;/td&gt;&lt;td&gt;保单Id（policy_id）&lt;br&gt;批单Id（policy_change_id）&lt;br&gt;待付经纪费(brokerage_fee)&lt;br&gt;已付经纪费(brokerage_fee_paid)&lt;br&gt;支付日期(paid_date)&lt;br&gt;create_user&lt;br&gt;create_time&lt;br&gt;&lt;br&gt;&lt;/td&gt;&lt;/tr&gt;&lt;/tbody&gt;&lt;/table&gt;" style="verticalAlign=top;align=left;overflow=fill;html=1;" parent="1" vertex="1">
          <mxGeometry x="-1220" y="-90" width="230" height="230" as="geometry"/>
        </mxCell>
        <mxCell id="6H1ZUyYsbKM88KtSM8RW-2" value="&lt;div style=&quot;box-sizing: border-box ; width: 100% ; background: #e4e4e4 ; padding: 2px&quot;&gt;insurance_agent（保险经办人）&lt;br&gt;&lt;/div&gt;&lt;table style=&quot;width: 100% ; font-size: 1em&quot; cellpadding=&quot;2&quot; cellspacing=&quot;0&quot;&gt;&lt;tbody&gt;&lt;tr&gt;&lt;td&gt;PK&lt;/td&gt;&lt;td&gt;id&lt;br&gt;&lt;/td&gt;&lt;/tr&gt;&lt;tr&gt;&lt;td&gt;FK1&lt;/td&gt;&lt;td&gt;insurance_product_id&lt;table cellpadding=&quot;2&quot; cellspacing=&quot;0&quot; style=&quot;font-size: 1em ; width: 230px&quot;&gt;&lt;tbody&gt;&lt;tr&gt;&lt;td&gt;(保险产品id)&lt;/td&gt;&lt;/tr&gt;&lt;/tbody&gt;&lt;/table&gt;&lt;/td&gt;&lt;/tr&gt;&lt;tr&gt;&lt;td&gt;&lt;br&gt;&lt;/td&gt;&lt;td&gt;&lt;br&gt;agent_name(经办人名称)&lt;br&gt;contact(联系电话)&lt;br&gt;email(邮箱)&lt;br&gt;post(职务)&lt;br&gt;&lt;br&gt;&lt;/td&gt;&lt;/tr&gt;&lt;/tbody&gt;&lt;/table&gt;" style="verticalAlign=top;align=left;overflow=fill;html=1;" parent="1" vertex="1">
          <mxGeometry x="-870" y="-130" width="215" height="220" as="geometry"/>
        </mxCell>
        <mxCell id="6H1ZUyYsbKM88KtSM8RW-3" value="&lt;div style=&quot;box-sizing: border-box ; width: 100% ; background: #e4e4e4 ; padding: 2px&quot;&gt;insurance_product（保险产品）&lt;br&gt;&lt;/div&gt;&lt;table style=&quot;width: 100% ; font-size: 1em&quot; cellpadding=&quot;2&quot; cellspacing=&quot;0&quot;&gt;&lt;tbody&gt;&lt;tr&gt;&lt;td&gt;PK&lt;/td&gt;&lt;td&gt;Id&lt;/td&gt;&lt;/tr&gt;&lt;tr&gt;&lt;td&gt;FK1&lt;/td&gt;&lt;td&gt;product_company_id&lt;/td&gt;&lt;/tr&gt;&lt;tr&gt;&lt;td&gt;&lt;/td&gt;&lt;td&gt;&lt;br&gt;&lt;br&gt;&lt;/td&gt;&lt;/tr&gt;&lt;/tbody&gt;&lt;/table&gt;" style="verticalAlign=top;align=left;overflow=fill;html=1;" parent="1" vertex="1">
          <mxGeometry x="-580" y="-130" width="180" height="90" as="geometry"/>
        </mxCell>
        <mxCell id="6H1ZUyYsbKM88KtSM8RW-4" value="&lt;div style=&quot;box-sizing: border-box ; width: 100% ; background: #e4e4e4 ; padding: 2px&quot;&gt;policy_pay_info（保费支付情况）&lt;br&gt;&lt;/div&gt;&lt;table style=&quot;width: 100% ; font-size: 1em&quot; cellpadding=&quot;2&quot; cellspacing=&quot;0&quot;&gt;&lt;tbody&gt;&lt;tr&gt;&lt;td&gt;PK&lt;/td&gt;&lt;td&gt;uniqueId&lt;/td&gt;&lt;/tr&gt;&lt;tr&gt;&lt;td&gt;FK1&lt;/td&gt;&lt;td&gt;foreignKey&lt;br&gt;&lt;/td&gt;&lt;/tr&gt;&lt;tr&gt;&lt;td&gt;&lt;br&gt;&lt;/td&gt;&lt;td&gt;policy_id（保单Id）&lt;br&gt;policy_change_id（批单id）&lt;br&gt;policy_no（保单号）&lt;br&gt;premium_date？（日历）&lt;br&gt;premium（保费）&lt;br&gt;pay_date（支付日期）&lt;br&gt;status&amp;nbsp; &amp;nbsp;状态（0：未支付、1：已支付）&lt;br&gt;&lt;br&gt;&lt;/td&gt;&lt;/tr&gt;&lt;/tbody&gt;&lt;/table&gt;" style="verticalAlign=top;align=left;overflow=fill;html=1;" parent="1" vertex="1">
          <mxGeometry x="-1330" y="200" width="250" height="180" as="geometry"/>
        </mxCell>
        <mxCell id="6H1ZUyYsbKM88KtSM8RW-7" value="&lt;div style=&quot;box-sizing: border-box ; width: 100% ; background: #e4e4e4 ; padding: 2px&quot;&gt;policy_insured（保单被保险人）&lt;table cellpadding=&quot;2&quot; cellspacing=&quot;0&quot; style=&quot;font-size: 1em ; width: 100%&quot;&gt;&lt;tbody&gt;&lt;tr&gt;&lt;td&gt;PK&lt;/td&gt;&lt;td&gt;id&lt;/td&gt;&lt;/tr&gt;&lt;tr&gt;&lt;td&gt;FK1&lt;/td&gt;&lt;td&gt;policy_id（保单Id）&lt;br&gt;&lt;/td&gt;&lt;/tr&gt;&lt;tr&gt;&lt;td&gt;&lt;/td&gt;&lt;td&gt;insured_name&lt;br&gt;certificate_type&lt;br&gt;certificate_no&lt;br&gt;&lt;br&gt;&lt;/td&gt;&lt;/tr&gt;&lt;/tbody&gt;&lt;/table&gt;&lt;/div&gt;" style="verticalAlign=top;align=left;overflow=fill;html=1;" parent="1" vertex="1">
          <mxGeometry x="-875" y="325" width="165" height="110" as="geometry"/>
        </mxCell>
        <mxCell id="6H1ZUyYsbKM88KtSM8RW-8" value="&lt;div style=&quot;box-sizing: border-box ; width: 100% ; background: #e4e4e4 ; padding: 2px&quot;&gt;policy_holder_client_insured&lt;/div&gt;&lt;div style=&quot;box-sizing: border-box ; width: 100% ; background: #e4e4e4 ; padding: 2px&quot;&gt;（客户资料-被保险人）&lt;table cellpadding=&quot;2&quot; cellspacing=&quot;0&quot; style=&quot;font-size: 1em ; width: 100%&quot;&gt;&lt;tbody&gt;&lt;tr&gt;&lt;td&gt;PK&lt;/td&gt;&lt;td&gt;id&lt;/td&gt;&lt;/tr&gt;&lt;tr&gt;&lt;td&gt;FK1&lt;/td&gt;&lt;td&gt;insured_client_id&lt;br&gt;&lt;/td&gt;&lt;/tr&gt;&lt;tr&gt;&lt;td&gt;&lt;/td&gt;&lt;td&gt;insured_name&lt;br&gt;certificate_type&lt;br&gt;certificate_no&lt;br&gt;&lt;br&gt;&lt;br&gt;&lt;/td&gt;&lt;/tr&gt;&lt;/tbody&gt;&lt;/table&gt;&lt;/div&gt;" style="verticalAlign=top;align=left;overflow=fill;html=1;" parent="1" vertex="1">
          <mxGeometry x="-860" y="140" width="180" height="150" as="geometry"/>
        </mxCell>
        <mxCell id="6H1ZUyYsbKM88KtSM8RW-9" value="&lt;div style=&quot;box-sizing: border-box ; width: 100% ; background: #e4e4e4 ; padding: 2px&quot;&gt;policy_holder_client（客户资料（投保人））&lt;table cellpadding=&quot;2&quot; cellspacing=&quot;0&quot; style=&quot;font-size: 1em ; width: 100%&quot;&gt;&lt;tbody&gt;&lt;tr&gt;&lt;td&gt;PK&lt;/td&gt;&lt;td&gt;id&lt;/td&gt;&lt;/tr&gt;&lt;tr&gt;&lt;td&gt;FK1&lt;/td&gt;&lt;td&gt;client_manager_id（客户经理Id）&lt;br&gt;&lt;/td&gt;&lt;/tr&gt;&lt;tr&gt;&lt;td&gt;&lt;/td&gt;&lt;td&gt;client_name（投保人（客户）姓名）&lt;br&gt;gender（性别（1：男；0：女））&lt;br&gt;certificate_type（证件类型）&lt;br&gt;certificate_no （证件号）&lt;br&gt;birthday（出生年月）&lt;br&gt;nationality（国籍）&lt;br&gt;province（省）&lt;br&gt;resident （常驻地）&lt;br&gt;contact（联系电话）&lt;br&gt;scope （覆盖范围）&lt;br&gt;updat&lt;br&gt;&lt;br&gt;&lt;br&gt;&lt;br&gt;&lt;br&gt;&lt;br&gt;&lt;br&gt;&lt;br&gt;&lt;br&gt;&lt;/td&gt;&lt;/tr&gt;&lt;/tbody&gt;&lt;/table&gt;&lt;/div&gt;" style="verticalAlign=top;align=left;overflow=fill;html=1;" parent="1" vertex="1">
          <mxGeometry x="-1350" y="500" width="240" height="280" as="geometry"/>
        </mxCell>
        <mxCell id="6H1ZUyYsbKM88KtSM8RW-12" value="&lt;div style=&quot;box-sizing: border-box ; width: 100% ; background: #e4e4e4 ; padding: 2px&quot;&gt;policy-保单信息表&lt;table cellpadding=&quot;2&quot; cellspacing=&quot;0&quot; style=&quot;font-size: 1em ; width: 100%&quot;&gt;&lt;tbody&gt;&lt;tr&gt;&lt;td&gt;PK&lt;/td&gt;&lt;td&gt;Id&lt;/td&gt;&lt;/tr&gt;&lt;tr&gt;&lt;td&gt;FK1&lt;/td&gt;&lt;td&gt;foreignKey&lt;/td&gt;&lt;/tr&gt;&lt;tr&gt;&lt;td&gt;&lt;/td&gt;&lt;td&gt;sequence（检索号）&lt;br&gt;policy_holder（投保人）&lt;br&gt;policy_holder_name（投保人名称）&lt;br&gt;client_manager（客户经理）&lt;br&gt;client_manager_id （客户经理Id）&lt;br&gt;policy_no （保单号）&lt;br&gt;product_company_id （产品公司Id）&lt;br&gt;product_company_name（产品公司名称）&lt;br&gt;issuing_company_id （出单公司）&lt;br&gt;issuing_company_name（出单公司名称）&lt;br&gt;insurance_product_id （产品名称）&lt;br&gt;insurance_product_name （产品名称）&lt;br&gt;insurance_plan （保险计划）&lt;br&gt;scope （覆盖范围）&lt;br&gt;type (保险类型)&lt;br&gt;fee_ratio （经纪费比例）&lt;br&gt;policy_start_date （保险起期）&lt;br&gt;policy_end_date （保险止期）&lt;br&gt;renewal_days&amp;nbsp; （续保提醒，天数）&lt;br&gt;premium_CNY （保费-人民币）&lt;br&gt;premium_US_ratio （美元汇率）&lt;br&gt;premium_US （美元金额）&lt;br&gt;brokerage_fee （经纪费）&lt;br&gt;pay_type （付费方式（季付、半年付、年付）&lt;br&gt;premium_date （付费日期）&lt;br&gt;remark （备注）&lt;br&gt;premium_total （保费总额）&lt;br&gt;premium_pay （已支付保费）&lt;br&gt;premium_change （保费变更数）&lt;br&gt;brokerage_fee_change （经纪费变更数）&lt;br&gt;status （保单状态(0：新增，1：保费结算状态，&lt;br&gt;&amp;nbsp; &amp;nbsp; &amp;nbsp; &amp;nbsp; &amp;nbsp; &amp;nbsp; &amp;nbsp;2：经纪费结算状态，3：计提）&lt;br&gt;brokerage_fee_paid （实收经纪费）&lt;br&gt;create_time （）&lt;br&gt;create_user （）&lt;br&gt;update_time （）&lt;br&gt;update_user （）&lt;br&gt;remind_flag （提醒标志）&lt;br&gt;&lt;br&gt;&lt;br&gt;&lt;br&gt;&lt;br&gt;&lt;br&gt;&lt;/td&gt;&lt;/tr&gt;&lt;/tbody&gt;&lt;/table&gt;&lt;/div&gt;" style="verticalAlign=top;align=left;overflow=fill;html=1;" parent="1" vertex="1">
          <mxGeometry x="-1030" y="480" width="330" height="600" as="geometry"/>
        </mxCell>
        <mxCell id="6H1ZUyYsbKM88KtSM8RW-13" value="&lt;div style=&quot;box-sizing: border-box ; width: 100% ; background: #e4e4e4 ; padding: 2px&quot;&gt;policy_batch&lt;table cellpadding=&quot;2&quot; cellspacing=&quot;0&quot; style=&quot;font-size: 1em ; width: 100%&quot;&gt;&lt;tbody&gt;&lt;tr&gt;&lt;td&gt;PK&lt;/td&gt;&lt;td&gt;id&lt;/td&gt;&lt;/tr&gt;&lt;tr&gt;&lt;td&gt;FK1&lt;/td&gt;&lt;td&gt;policy_id（保单Id）&lt;br&gt;&lt;/td&gt;&lt;/tr&gt;&lt;tr&gt;&lt;td&gt;&lt;/td&gt;&lt;td&gt;batch_no （批次号）&lt;br&gt;batch_policy_id （本批次所涉及的保单或批单Id）&lt;br&gt;&lt;/td&gt;&lt;/tr&gt;&lt;/tbody&gt;&lt;/table&gt;&lt;/div&gt;" style="verticalAlign=top;align=left;overflow=fill;html=1;" parent="1" vertex="1">
          <mxGeometry x="-1400" y="850" width="300" height="100" as="geometry"/>
        </mxCell>
        <mxCell id="6H1ZUyYsbKM88KtSM8RW-14" value="&lt;div style=&quot;box-sizing: border-box ; width: 100% ; background: #e4e4e4 ; padding: 2px&quot;&gt;policy_change&lt;br&gt;&lt;/div&gt;&lt;table style=&quot;width: 100% ; font-size: 1em&quot; cellpadding=&quot;2&quot; cellspacing=&quot;0&quot;&gt;&lt;tbody&gt;&lt;tr&gt;&lt;td&gt;PK&lt;/td&gt;&lt;td&gt;&lt;span style=&quot;background-color: rgb(228 , 228 , 228)&quot;&gt;policy_id（保单Id）&lt;/span&gt;&lt;br&gt;&lt;/td&gt;&lt;/tr&gt;&lt;tr&gt;&lt;td&gt;FK1&lt;/td&gt;&lt;td&gt;foreignKey&lt;/td&gt;&lt;/tr&gt;&lt;tr&gt;&lt;td&gt;&lt;/td&gt;&lt;td&gt;policy_change_no（保单号）&lt;br&gt;policy_start_date（保险起期）&lt;br&gt;policy_end_date（保险止期）&lt;br&gt;premium_change_CNY（变更保费-人民币）&lt;br&gt;premium_change_US_ratio（变更保费美元汇率）&lt;br&gt;premium_change_US （变更保费美元金额）&lt;br&gt;&lt;/td&gt;&lt;/tr&gt;&lt;/tbody&gt;&lt;/table&gt;" style="verticalAlign=top;align=left;overflow=fill;html=1;" parent="1" vertex="1">
          <mxGeometry x="-1290" y="1130" width="310" height="220" as="geometry"/>
        </mxCell>
        <mxCell id="6H1ZUyYsbKM88KtSM8RW-17" value="&lt;div style=&quot;box-sizing: border-box ; width: 100% ; background: #e4e4e4 ; padding: 2px&quot;&gt;product_company(产品公司)&lt;/div&gt;&lt;table style=&quot;width: 100% ; font-size: 1em&quot; cellpadding=&quot;2&quot; cellspacing=&quot;0&quot;&gt;&lt;tbody&gt;&lt;tr&gt;&lt;td&gt;PK&lt;/td&gt;&lt;td&gt;id&lt;/td&gt;&lt;/tr&gt;&lt;tr&gt;&lt;td&gt;FK1&lt;/td&gt;&lt;td&gt;foreignKey&lt;/td&gt;&lt;/tr&gt;&lt;tr&gt;&lt;td&gt;&lt;/td&gt;&lt;td&gt;company_name(公司名称)&lt;br&gt;status (状态（0：下架；1：上架）&lt;br&gt;create_time （）&lt;br style=&quot;background-color: rgb(228 , 228 , 228)&quot;&gt;&lt;span style=&quot;background-color: rgb(228 , 228 , 228)&quot;&gt;create_user （）&lt;/span&gt;&lt;br style=&quot;background-color: rgb(228 , 228 , 228)&quot;&gt;&lt;span style=&quot;background-color: rgb(228 , 228 , 228)&quot;&gt;update_time （）&lt;/span&gt;&lt;br style=&quot;background-color: rgb(228 , 228 , 228)&quot;&gt;&lt;span style=&quot;background-color: rgb(228 , 228 , 228)&quot;&gt;update_user （）&lt;/span&gt;&lt;br&gt;&lt;/td&gt;&lt;/tr&gt;&lt;/tbody&gt;&lt;/table&gt;" style="verticalAlign=top;align=left;overflow=fill;html=1;" parent="1" vertex="1">
          <mxGeometry x="-450" y="480" width="230" height="150" as="geometry"/>
        </mxCell>
        <mxCell id="6H1ZUyYsbKM88KtSM8RW-18" value="&lt;div style=&quot;box-sizing: border-box ; width: 100% ; background: #e4e4e4 ; padding: 2px&quot;&gt;product_company_log&lt;br&gt;&lt;/div&gt;&lt;table style=&quot;width: 100% ; font-size: 1em&quot; cellpadding=&quot;2&quot; cellspacing=&quot;0&quot;&gt;&lt;tbody&gt;&lt;tr&gt;&lt;td&gt;PK&lt;/td&gt;&lt;td&gt;id&lt;/td&gt;&lt;/tr&gt;&lt;tr&gt;&lt;td&gt;FK1&lt;/td&gt;&lt;td&gt;foreignKey&lt;/td&gt;&lt;/tr&gt;&lt;tr&gt;&lt;td&gt;&lt;/td&gt;&lt;td&gt;company_name&lt;br&gt;create_user&lt;br&gt;create_time&lt;br&gt;product_company_id&lt;br&gt;&lt;br&gt;&lt;/td&gt;&lt;/tr&gt;&lt;/tbody&gt;&lt;/table&gt;" style="verticalAlign=top;align=left;overflow=fill;html=1;" parent="1" vertex="1">
          <mxGeometry x="-440" y="700" width="190" height="160" as="geometry"/>
        </mxCell>
        <mxCell id="6H1ZUyYsbKM88KtSM8RW-19" value="&lt;div style=&quot;box-sizing: border-box ; width: 100% ; background: #e4e4e4 ; padding: 2px&quot;&gt;policy_count&lt;table cellpadding=&quot;2&quot; cellspacing=&quot;0&quot; style=&quot;font-size: 1em ; width: 100%&quot;&gt;&lt;tbody&gt;&lt;tr&gt;&lt;td&gt;PK&lt;/td&gt;&lt;td&gt;id&lt;/td&gt;&lt;/tr&gt;&lt;tr&gt;&lt;td&gt;FK1&lt;/td&gt;&lt;td&gt;foreignKey&lt;/td&gt;&lt;/tr&gt;&lt;tr&gt;&lt;td&gt;&lt;/td&gt;&lt;td&gt;brokerage_fee_wait_count(待付经纪费)&lt;br&gt;policy_id(原保单Id)&lt;br&gt;premium_count(保费统计)&lt;br&gt;premium_pay_count(已收保费统计)&lt;br&gt;brokerage_fee_count(经纪费统计)&lt;br&gt;brokerage_fee_pay_count(已收经纪费统计)&lt;br&gt;&lt;br&gt;&lt;br&gt;&lt;/td&gt;&lt;/tr&gt;&lt;/tbody&gt;&lt;/table&gt;&lt;/div&gt;" style="verticalAlign=top;align=left;overflow=fill;html=1;" parent="1" vertex="1">
          <mxGeometry x="-580" y="1037.65" width="440" height="170" as="geometry"/>
        </mxCell>
        <mxCell id="6H1ZUyYsbKM88KtSM8RW-20" value="&lt;div style=&quot;box-sizing: border-box ; width: 100% ; background: #e4e4e4 ; padding: 2px&quot;&gt;system_dictionary&amp;nbsp;&lt;br&gt;&lt;/div&gt;&lt;table style=&quot;width: 100% ; font-size: 1em&quot; cellpadding=&quot;2&quot; cellspacing=&quot;0&quot;&gt;&lt;tbody&gt;&lt;tr&gt;&lt;td&gt;PK&lt;/td&gt;&lt;td&gt;id&lt;/td&gt;&lt;/tr&gt;&lt;tr&gt;&lt;td&gt;FK1&lt;/td&gt;&lt;td&gt;foreignKey&lt;/td&gt;&lt;/tr&gt;&lt;tr&gt;&lt;td&gt;&lt;/td&gt;&lt;td&gt;type 类型&lt;br&gt;value 内容&lt;br&gt;code 编码&lt;br&gt;remark 描述&amp;nbsp;&lt;br&gt;&lt;br&gt;&lt;/td&gt;&lt;/tr&gt;&lt;/tbody&gt;&lt;/table&gt;" style="verticalAlign=top;align=left;overflow=fill;html=1;" parent="1" vertex="1">
          <mxGeometry x="-1400" y="1690" width="180" height="130" as="geometry"/>
        </mxCell>
        <mxCell id="6H1ZUyYsbKM88KtSM8RW-21" value="&lt;div style=&quot;box-sizing: border-box ; width: 100% ; background: #e4e4e4 ; padding: 2px&quot;&gt;system_menu&lt;/div&gt;&lt;table style=&quot;width: 100% ; font-size: 1em&quot; cellpadding=&quot;2&quot; cellspacing=&quot;0&quot;&gt;&lt;tbody&gt;&lt;tr&gt;&lt;td&gt;PK&lt;/td&gt;&lt;td&gt;id&lt;/td&gt;&lt;/tr&gt;&lt;tr&gt;&lt;td&gt;FK1&lt;/td&gt;&lt;td&gt;pid (父级菜单Id)&lt;/td&gt;&lt;/tr&gt;&lt;tr&gt;&lt;td&gt;&lt;/td&gt;&lt;td&gt;fieldname&lt;/td&gt;&lt;/tr&gt;&lt;/tbody&gt;&lt;/table&gt;" style="verticalAlign=top;align=left;overflow=fill;html=1;" parent="1" vertex="1">
          <mxGeometry x="-1100" y="1700" width="180" height="90" as="geometry"/>
        </mxCell>
        <mxCell id="6H1ZUyYsbKM88KtSM8RW-22" value="&lt;div style=&quot;box-sizing: border-box ; width: 100% ; background: #e4e4e4 ; padding: 2px&quot;&gt;+保单分期表&lt;/div&gt;&lt;table style=&quot;width: 100% ; font-size: 1em&quot; cellpadding=&quot;2&quot; cellspacing=&quot;0&quot;&gt;&lt;tbody&gt;&lt;tr&gt;&lt;td&gt;PK&lt;/td&gt;&lt;td&gt;id&lt;/td&gt;&lt;/tr&gt;&lt;tr&gt;&lt;td&gt;FK1&lt;/td&gt;&lt;td&gt;policyId保单ID&lt;/td&gt;&lt;/tr&gt;&lt;tr&gt;&lt;td&gt;&lt;/td&gt;&lt;td&gt;分期序号&lt;br&gt;不含税保费&lt;br&gt;开票状态&lt;br&gt;保费是否已支付&lt;br&gt;&lt;/td&gt;&lt;/tr&gt;&lt;/tbody&gt;&lt;/table&gt;" style="verticalAlign=top;align=left;overflow=fill;html=1;" parent="1" vertex="1">
          <mxGeometry x="-1400" y="1840" width="180" height="120" as="geometry"/>
        </mxCell>
        <mxCell id="6H1ZUyYsbKM88KtSM8RW-23" value="&lt;div style=&quot;box-sizing:border-box;width:100%;background:#e4e4e4;padding:2px;&quot;&gt;Tablename&lt;/div&gt;&lt;table style=&quot;width:100%;font-size:1em;&quot; cellpadding=&quot;2&quot; cellspacing=&quot;0&quot;&gt;&lt;tr&gt;&lt;td&gt;PK&lt;/td&gt;&lt;td&gt;uniqueId&lt;/td&gt;&lt;/tr&gt;&lt;tr&gt;&lt;td&gt;FK1&lt;/td&gt;&lt;td&gt;foreignKey&lt;/td&gt;&lt;/tr&gt;&lt;tr&gt;&lt;td&gt;&lt;/td&gt;&lt;td&gt;fieldname&lt;/td&gt;&lt;/tr&gt;&lt;/table&gt;" style="verticalAlign=top;align=left;overflow=fill;html=1;" parent="1" vertex="1">
          <mxGeometry x="-1170" y="1850" width="180" height="90" as="geometry"/>
        </mxCell>
        <mxCell id="v0BBGl1ShmxaNqgcCEEs-6" value="" style="edgeStyle=entityRelationEdgeStyle;fontSize=12;html=1;endArrow=ERoneToMany;startArrow=ERoneToMany;" parent="1" source="6H1ZUyYsbKM88KtSM8RW-12" target="6H1ZUyYsbKM88KtSM8RW-8" edge="1">
          <mxGeometry width="100" height="100" relative="1" as="geometry">
            <mxPoint x="-720" y="435" as="sourcePoint"/>
            <mxPoint x="-620" y="335" as="targetPoint"/>
          </mxGeometry>
        </mxCell>
        <mxCell id="v0BBGl1ShmxaNqgcCEEs-15" value="" style="endArrow=none;html=1;rounded=0;dashed=1;dashPattern=1 2;" parent="1" edge="1">
          <mxGeometry relative="1" as="geometry">
            <mxPoint x="-1400" y="1980" as="sourcePoint"/>
            <mxPoint x="-1240" y="1980" as="targetPoint"/>
          </mxGeometry>
        </mxCell>
        <mxCell id="v0BBGl1ShmxaNqgcCEEs-16" value="1" style="resizable=0;html=1;align=right;verticalAlign=bottom;" parent="v0BBGl1ShmxaNqgcCEEs-15" connectable="0" vertex="1">
          <mxGeometry x="1" relative="1" as="geometry"/>
        </mxCell>
        <mxCell id="v0BBGl1ShmxaNqgcCEEs-17" value="" style="endArrow=none;html=1;rounded=0;dashed=1;dashPattern=1 2;exitX=1;exitY=0.5;exitDx=0;exitDy=0;" parent="1" source="6H1ZUyYsbKM88KtSM8RW-7" edge="1">
          <mxGeometry relative="1" as="geometry">
            <mxPoint x="-790" y="378.33" as="sourcePoint"/>
            <mxPoint x="-650" y="378" as="targetPoint"/>
          </mxGeometry>
        </mxCell>
        <mxCell id="v0BBGl1ShmxaNqgcCEEs-18" value="1" style="resizable=0;html=1;align=right;verticalAlign=bottom;" parent="v0BBGl1ShmxaNqgcCEEs-17" connectable="0" vertex="1">
          <mxGeometry x="1" relative="1" as="geometry"/>
        </mxCell>
        <mxCell id="v0BBGl1ShmxaNqgcCEEs-19" value="" style="edgeStyle=entityRelationEdgeStyle;fontSize=12;html=1;endArrow=ERmany;startArrow=ERmany;" parent="1" source="6H1ZUyYsbKM88KtSM8RW-12" target="6H1ZUyYsbKM88KtSM8RW-17" edge="1">
          <mxGeometry width="100" height="100" relative="1" as="geometry">
            <mxPoint x="-610" y="740" as="sourcePoint"/>
            <mxPoint x="-510" y="640" as="targetPoint"/>
          </mxGeometry>
        </mxCell>
        <mxCell id="v0BBGl1ShmxaNqgcCEEs-21" value="" style="edgeStyle=entityRelationEdgeStyle;fontSize=12;html=1;endArrow=ERoneToMany;startArrow=ERzeroToMany;" parent="1" source="6H1ZUyYsbKM88KtSM8RW-9" target="6H1ZUyYsbKM88KtSM8RW-12" edge="1">
          <mxGeometry width="100" height="100" relative="1" as="geometry">
            <mxPoint x="-1280" y="660" as="sourcePoint"/>
            <mxPoint x="-1180" y="560" as="targetPoint"/>
          </mxGeometry>
        </mxCell>
        <mxCell id="v0BBGl1ShmxaNqgcCEEs-22" value="" style="edgeStyle=entityRelationEdgeStyle;fontSize=12;html=1;endArrow=ERone;endFill=1;entryX=-0.007;entryY=0.331;entryDx=0;entryDy=0;entryPerimeter=0;" parent="1" source="6H1ZUyYsbKM88KtSM8RW-12" target="6H1ZUyYsbKM88KtSM8RW-19" edge="1">
          <mxGeometry width="100" height="100" relative="1" as="geometry">
            <mxPoint x="-1070" y="1360" as="sourcePoint"/>
            <mxPoint x="-970" y="1260" as="targetPoint"/>
          </mxGeometry>
        </mxCell>
        <mxCell id="v0BBGl1ShmxaNqgcCEEs-24" value="" style="edgeStyle=entityRelationEdgeStyle;fontSize=12;html=1;endArrow=ERoneToMany;startArrow=ERoneToMany;entryX=0.477;entryY=1.005;entryDx=0;entryDy=0;entryPerimeter=0;" parent="1" source="6H1ZUyYsbKM88KtSM8RW-14" target="6H1ZUyYsbKM88KtSM8RW-12" edge="1">
          <mxGeometry width="100" height="100" relative="1" as="geometry">
            <mxPoint x="-1030" y="1140" as="sourcePoint"/>
            <mxPoint x="-930" y="1040" as="targetPoint"/>
          </mxGeometry>
        </mxCell>
        <mxCell id="UEh6p9Jpt_CAcSgmtUNI-1" value="" style="edgeStyle=entityRelationEdgeStyle;fontSize=12;html=1;endArrow=ERoneToMany;startArrow=ERoneToMany;" edge="1" parent="1" source="6H1ZUyYsbKM88KtSM8RW-12" target="6H1ZUyYsbKM88KtSM8RW-4">
          <mxGeometry width="100" height="100" relative="1" as="geometry">
            <mxPoint x="-1190" y="470" as="sourcePoint"/>
            <mxPoint x="-1090" y="370" as="targetPoint"/>
          </mxGeometry>
        </mxCell>
      </root>
    </mxGraphModel>
  </diagram>
  <diagram id="xI2JzchMaBl9uPsw5fb4" name="Page-2">
    <mxGraphModel dx="1273" dy="592" grid="1" gridSize="10" guides="1" tooltips="1" connect="1" arrows="1" fold="1" page="1" pageScale="1" pageWidth="850" pageHeight="1100" math="0" shadow="0">
      <root>
        <mxCell id="weeqE_SlCs80IOblyiwJ-0"/>
        <mxCell id="weeqE_SlCs80IOblyiwJ-1" parent="weeqE_SlCs80IOblyiwJ-0"/>
      </root>
    </mxGraphModel>
  </diagram>
</mxfile>
